<?xml version="1.0" encoding="utf-8"?>
<!-- Generator: Adobe Illustrator 19.0.0, SVG Export Plug-In . SVG Version: 6.00 Build 0)  -->
<svg version="1.1" id="Layer_1" xmlns="http://www.w3.org/2000/svg" xmlns:xlink="http://www.w3.org/1999/xlink" x="0px" y="0px"
	 viewBox="0 0 1024 1024" style="enable-background:new 0 0 1024 1024;" xml:space="preserve">
<style type="text/css">
	.st0{display:none;fill:#ED1970;}
	.st1{display:none;fill:#00BEDD;}
	.st2{display:none;}
	.st3{display:inline;fill:#FFFFFF;}
	.st4{fill:#FFFFFF;}
	.st5{fill:#231F20;}
	.st6{display:inline;fill:#231F20;}
</style>
<rect id="XMLID_1_" x="0" class="st0" width="1024" height="1024"/>
<rect id="XMLID_26_" class="st1" width="1024" height="1024"/>
<g id="XMLID_45_" class="st2">
	<path id="XMLID_69_" class="st3" d="M130.1,782.3c9.1,0,17.3,0.8,24.4,2.3c7.1,1.5,13.3,3.6,18.7,6.3c5.3,2.7,9.9,5.9,13.6,9.6
		c3.7,3.7,6.7,7.7,9,12.1c2.3,4.4,4,9,5,13.9c1,4.9,1.6,9.9,1.6,15c0,7.1-0.8,14.7-2.4,22.9c-1.6,8.2-3.8,15.7-6.8,22.5
		c-3,6.8-6.6,13.1-11,19.1c-4.3,5.9-9.3,11.1-14.9,15.5c-5.6,4.4-11.8,7.9-18.5,10.5c-6.7,2.5-14,3.8-21.8,3.8c-2.6,0-5.3-0.2-8-0.6
		c-2.7-0.4-5.3-0.9-7.9-1.6c-2.5-0.7-5-1.5-7.2-2.3c-2.3-0.9-4.3-1.7-6-2.7c-0.7-0.2-1.3-0.5-1.7-0.8c-0.4-0.3-0.7-0.7-1-1.1
		c-0.2-0.4-0.4-1-0.4-1.6c-0.1-0.6-0.1-1.4-0.1-2.4c0-9.3,0.2-18.8,0.7-28.5c0.5-9.7,1.4-19.7,2.9-29.9c1.4-10.2,3.5-19.3,6.2-27.1
		c2.7-7.8,6.3-15.1,10.8-21.7c1.1-1.6,4.7-2.4,10.7-2.4c4.8,0,8.2,1.7,10.2,5.2c-2.6,3.5-4.7,7.3-6.5,11.5
		c-1.7,4.2-3.2,8.4-4.4,12.5c-1.2,4.1-2.2,8.6-2.9,13.4c-1.5,9.4-2.2,14.1-2.2,14.2c0.2,0.1-0.5,5.5-1.9,16.1
		c-0.6,3.7-1,6.9-1.3,9.6c-0.3,2.7-0.5,5.1-0.7,7.2c-0.1,2.1-0.2,4.1-0.2,6c0,2.1,0.1,3.8,0.2,5.2c0.1,1.4,0.5,2.5,1,3.3
		c0.5,0.8,1.3,1.4,2.4,1.8c1.1,0.4,2.6,0.5,4.4,0.5c5.6,0,10.9-1.1,15.9-3.3c5-2.2,9.7-5.2,13.9-8.9c4.3-3.7,8.1-8,11.5-12.9
		c3.4-4.9,6.3-10.6,8.6-17c2.4-6.4,4.2-12.5,5.5-18.2c1.3-5.7,1.9-11.1,1.9-16.4c0-6.5-1.1-12.3-3.2-17.4c-2.1-5.1-5.1-9.4-8.9-13
		c-3.8-3.5-8.4-6.2-13.8-8.1c-5.4-1.9-11.3-2.8-17.7-2.8c-4.7,0-9.4,0.3-14,0.8c-4.6,0.6-8.9,1.4-12.8,2.6
		c-3.9,1.2-7.4,2.7-10.4,4.5c-3,1.8-5.2,4-6.7,6.5c-4.1,6.3-7.4,11.2-10.1,14.7c-2.6,3.5-4.8,5.2-6.6,5.2c-2.5,0-3.7-2.8-3.7-8.5
		c0-5.5,0.7-10.4,2.1-14.7c1.4-4.4,3.4-8.2,5.9-11.6c2.5-3.4,5.6-6.3,9-8.6c3.5-2.4,7.3-4.3,11.5-5.9c4.2-1.5,8.6-2.7,13.3-3.4
		C120.3,782.6,125.2,782.3,130.1,782.3z"/>
	<path id="XMLID_66_" class="st3" d="M240.6,927.7c-5.2,0-9.8-1-13.7-2.9c-3.9-1.9-7.2-4.5-9.8-7.8c-2.6-3.3-4.6-7.1-5.9-11.3
		c-1.3-4.3-2-8.8-2-13.5c0-3.1,0.6-6.8,1.7-11c1.2-4.3,2.4-8.1,3.6-11.4c1.2-3.3,2.8-6.5,4.7-9.5c1.9-3,4.1-5.6,6.6-7.9
		c2.5-2.3,5.4-4.1,8.5-5.5c3.1-1.4,6.6-2,10.5-2c3.1,0,6,0.5,8.7,1.5c2.7,1,5,2.4,7,4.2c2,1.8,3.5,4,4.7,6.6
		c1.1,2.6,1.7,5.4,1.7,8.6c0,3.4-1.1,7.2-3.4,11.4c-2.3,4.2-4.9,7.8-7.9,10.8c-3,3-6.6,5.7-10.8,8c-4.2,2.3-8.7,4.2-13.6,5.5
		c0.8,1.5,1.7,2.7,2.5,3.7c0.8,1,1.6,1.7,2.5,2.3c0.8,0.5,1.7,0.9,2.6,1.1c0.9,0.2,1.9,0.3,3,0.3c3.4,0,6.9-0.7,10.6-2
		c3.7-1.3,7.3-2.9,10.8-4.9c3.5-2,6.8-4.1,10-6.4c3.1-2.3,5.8-4.5,8-6.6l10.8,11c-4.9,5.2-10.1,9.9-15.7,13.9
		c-2.4,1.7-5,3.4-7.7,5.1c-2.8,1.7-5.7,3.1-8.7,4.4c-3,1.3-6.2,2.3-9.5,3.1C247.3,927.3,243.9,927.7,240.6,927.7z M229.4,887.8
		c2,0,4.2-0.5,6.6-1.5c2.4-1,4.6-2.3,6.6-3.9c2-1.6,4-3.7,6-6.4c2-2.7,2.9-4.9,2.9-6.6c0-2.5-0.5-4.5-1.4-6.1
		c-0.9-1.6-2.1-2.4-3.4-2.4c-2.4,0-4.5,0.4-6.2,1.3c-1.7,0.9-3.1,2-4.3,3.4c-1.1,1.4-2.1,3-2.8,4.7c-0.7,1.8-1.5,4-2.4,6.6
		c-0.9,2.6-1.4,4.8-1.6,6.5C229.5,885.2,229.4,886.6,229.4,887.8z"/>
	<path id="XMLID_63_" class="st3" d="M342.3,927.7c-3,0-5.8-1.3-8.4-3.9c-2.6-2.6-4.8-6.1-6.8-10.5c-1.9-4.4-3.4-9.5-4.5-15.3
		c-1.1-5.8-1.6-11.9-1.6-18.3c0-5.5,0.8-12.8,2.4-21.9c1.6-9.1,2.4-13.7,2.4-13.7c0,0,1.2-4.6,3.7-13.7c2.4-9.1,4.9-16.5,7.3-22
		c2.5-5.5,5.1-10.7,8-15.5c2.9-4.8,5.9-9,9.1-12.5c3.2-3.6,6.5-6.4,9.9-8.4c3.4-2,6.9-3.1,10.5-3.1c2.6,0,4.7,0.5,6.4,1.5
		c1.7,1,3,2.3,4,3.9c1,1.6,1.6,3.5,2,5.5c0.4,2,0.6,4.1,0.6,6.3c0,5.3-0.6,10.7-1.9,16.1c-1.2,5.5-2.9,11-5.1,16.5
		c-2.1,5.5-4.6,11.1-7.4,16.6c-2.8,5.6-5.7,11.1-8.7,16.6c-3,5.5-6.1,10.9-9.1,16.2c-3,5.3-5.9,10.5-8.4,15.6
		c-0.3,0.6-0.6,1.3-0.9,2.2c-0.3,0.9-0.6,1.9-0.9,2.9c-0.3,1-0.6,2.2-0.8,3.3c-0.3,1.2-0.5,2.3-0.7,3.5v1.2c0,1.5,0.2,2.9,0.5,4.3
		c0.3,1.4,0.7,2.6,1.1,3.7c0.4,1.1,0.9,2,1.4,2.6c0.5,0.6,1,1,1.4,1c1.1,0,2.3-0.2,3.7-0.7c1.4-0.4,2.9-1.1,4.5-1.8
		c1.6-0.8,3.2-1.6,4.8-2.6c1.7-1,3.3-2,4.8-3c3.6-2.4,7.4-5.1,11.3-8.2l7.4,17.7c-5.1,3.4-10.2,6.4-15.2,9.1
		c-2.2,1.1-4.4,2.2-6.8,3.3c-2.3,1.1-4.7,2.1-7,2.9c-2.4,0.8-4.7,1.5-6.9,2C346.4,927.5,344.3,927.7,342.3,927.7z M342.4,861.3
		c2.5-4.5,5.2-9.6,8-15.2c2.8-5.6,5.5-11.4,8-17.4c2.5-6,4.7-11.9,6.6-17.9c1.8-5.9,3-11.5,3.5-16.6c0-1.6,0-3-0.1-4.2
		c-0.1-1.2-0.3-1.7-0.8-1.7c-1.5,0-3.2,1.1-5,3.2c-1.8,2.1-3.5,5-5.3,8.6c-1.8,3.6-3.9,9.5-6.4,17.7c-2.5,8.2-3.7,12.2-3.7,12.2
		s-0.8,3.8-2.3,11.4C343.6,848.9,342.7,855.6,342.4,861.3z"/>
	<path id="XMLID_60_" class="st3" d="M456.8,906.9c-1.3,1.8-3,3.9-5.2,6.4c-2.1,2.4-4.6,4.7-7.2,6.9c-2.7,2.2-5.6,4.1-8.6,5.6
		c-3.1,1.5-6.1,2.3-9.2,2.3c-3.7,0-6.8-1.2-9.3-3.5c-2.5-2.3-4.6-5.8-6.4-10.2c-1.4,1.5-3,3.1-5,4.7c-2,1.6-4.1,3.1-6.5,4.4
		c-2.3,1.3-4.8,2.4-7.3,3.2c-2.5,0.8-5.1,1.2-7.6,1.2c-2.7,0-5.3-0.5-7.8-1.6c-2.5-1.1-4.8-2.7-6.7-4.7c-2-2.1-3.5-4.6-4.7-7.5
		c-1.2-3-1.8-6.3-1.8-10c0-4.2,0.6-8.5,1.8-12.9c1.2-4.4,3-9.2,5.5-14.3c2.5-5.1,5.1-9.5,8-13.3c2.8-3.7,5.9-7,9.3-9.8
		c3.4-2.8,6.9-5,10.7-6.6c3.7-1.6,7.5-2.5,11.4-2.5c1.3,0,2.3,0.3,3,0.8c0.7,0.5,1.3,1.1,1.8,1.7c0.5,0.6,0.9,1.3,1.4,1.9
		c0.4,0.6,1,1.1,1.7,1.4c0.7,0.3,1.4,0.5,2.1,0.5c0.7,0.1,1.4,0.1,2.1,0.1c0.6,0,1.2,0,1.9,0c0.6,0,1.3,0,1.9,0
		c0.8,0,1.6,0.1,2.4,0.3c0.7,0.2,1.4,0.5,1.9,1.1c0.6,0.6,1,1.4,1.3,2.4c0.3,1,0.5,2.4,0.5,4.1c0,2.7-0.3,5.6-0.8,8.9
		c-0.6,3.3-1.2,6.6-1.9,10c-0.7,3.4-1.5,7.3-2.5,11.7c-0.9,4.4-1.4,8.1-1.4,11c0,2.6,0.2,4.6,0.7,6c0.5,1.4,1.5,2.2,3.1,2.2
		c1.2,0,2.4-0.3,3.7-0.9c1.3-0.6,2.6-1.3,3.9-2.3c1.3-0.9,2.6-2,3.9-3.2c1.3-1.2,2.6-2.4,3.7-3.7c2.7-3,5.5-6.4,8.3-10.1
		L456.8,906.9z M384.9,900.4c0,1.4,0.1,2.8,0.3,4.2c0.2,1.4,0.5,2.6,1,3.6c0.5,1.1,1.2,1.9,2,2.6c0.8,0.7,1.9,1,3.2,1
		c2.1,0,3.9-0.9,5.6-2.7c1.7-1.8,3.1-4,4.4-6.5c1.2-2.5,2.2-5.1,3-7.8c0.8-2.7,1.2-4.9,1.5-6.7l6.2-27.2c-2.3,0-4.5,0.6-6.7,1.7
		c-2.2,1.1-4.2,2.7-6.2,4.6c-1.9,1.9-3.7,4.2-5.3,6.6c-1.6,2.5-3.2,5.6-4.8,9.2c-1.6,3.7-2.7,6.9-3.3,9.6
		C385.2,895.3,384.9,897.9,384.9,900.4z"/>
	<path id="XMLID_57_" class="st3" d="M635.5,821.9c0,2.7-0.4,5.5-1.3,8.5c-0.9,3-2.3,5.9-4.1,8.8c-1.8,2.9-4.2,5.7-7.1,8.4
		c-2.9,2.7-6.3,5.1-10.3,7.2c-4,2.1-8.6,3.9-13.7,5.3c-5.1,1.4-10.9,2.3-17.3,2.7c3.9,1.4,7.1,3.3,9.7,5.6c2.6,2.3,4.8,4.8,6.5,7.6
		c1.7,2.8,3.2,5.9,4.4,9.2c1.2,3.3,2.1,6.5,2.7,9.3c0.6,2.9,1.2,5.6,1.9,8.3c0.7,2.7,1.4,5,2.2,7.2c0.8,2.1,1.8,3.8,3,5.1
		c1.2,1.3,2.8,1.9,4.8,1.9c1.9,0,4-0.3,6.2-1c2.3-0.6,4.6-1.5,7-2.7c2.4-1.2,4.7-2.6,7-4.2c2.3-1.6,4.5-3.4,6.5-5.4l9.7,16.4
		c0-0.1-0.5,0.3-1.6,1c-1.1,0.8-2.5,1.7-4.4,2.9c-1.9,1.1-4.1,2.4-6.7,3.8c-2.6,1.4-5.5,2.6-8.6,3.8c-3.1,1.2-6.4,2.1-9.9,2.9
		c-3.5,0.8-7,1.2-10.7,1.2c-4.1,0-7.6-1-10.5-3c-2.9-2-5.3-4.7-7.4-8c-2-3.3-3.7-7-5.1-11.3c-1.3-4.2-2.4-8.3-3.3-12.2
		c-0.8-3.9-1.7-8.1-2.7-12.7c-1-4.5-2-8.5-3.1-12c-1.1-3.5-2.5-6.2-4.1-8.3c-1.6-2-3.6-3-6-3h-5.8c-1.7,12.1-3.4,23-4.9,32.7
		c-1.6,9.7-3.6,18-6.2,24.8c-2.6,6.8-5.8,12-9.7,15.6c-3.9,3.6-8.7,5.4-14.3,5.4c-4.5,0-8.6-0.9-12.3-2.6c-3.7-1.7-7.1-4-10.1-7
		c-3-3-5.6-6.4-7.8-10.4c-2.2-4-4.1-8.2-5.6-12.8c-1.5-4.6-2.6-9.3-3.4-14.1c-0.8-4.9-1.1-9.7-1.1-14.5c0-8.7,1.1-17.1,3.2-25.4
		c2.2-8.3,5.3-16.1,9.3-23.5c4.1-7.4,9-14.1,14.7-20.3c5.8-6.2,12.2-11.5,19.4-16c7.2-4.5,15-8,23.5-10.5c8.5-2.5,17.4-3.8,26.9-3.8
		c4.2,0,8.3,0.4,12.5,1.2c4.1,0.8,8.1,1.9,11.8,3.4c3.7,1.5,7.2,3.4,10.4,5.6c3.2,2.2,6,4.8,8.3,7.7c2.3,2.9,4.1,6.1,5.5,9.6
		C634.8,813.9,635.5,817.8,635.5,821.9z M583.5,801.7c-9.2,0-17.5,1.3-24.7,3.9c-7.2,2.6-13.6,6-19.1,10.4
		c-5.5,4.4-10.2,9.4-14,15.2c-3.9,5.8-7,11.8-9.4,18.1c-2.4,6.3-4.2,12.7-5.2,19.2c-1.1,6.5-1.6,12.7-1.6,18.5
		c0,4.5,0.4,9.1,1.2,13.6c0.8,4.6,2,8.6,3.7,12.3c1.7,3.6,3.8,6.6,6.5,8.8c2.7,2.3,5.9,3.4,9.6,3.4c1.9,0,3.6-0.7,5-2.2
		c1.5-1.5,2.7-3.5,3.9-5.9c1.1-2.5,2.1-5.4,2.9-8.6c0.8-3.3,1.4-6.7,1.8-10.2c0.3-3.5,0.7-7.1,1.1-10.7c0.4-3.6,0.7-6.9,1-10
		c0.3-3.1,0.5-5.9,0.7-8.3c0.1-2.4,0.2-4.2,0.2-5.5c-4.3-2-7.6-3.8-9.8-5.5c-2.2-1.7-3.3-3.7-3.3-5.9c0-0.6,0-1.4,0.1-2.2
		c0.1-0.9,0.3-1.7,0.5-2.4c0.3-0.7,0.7-1.4,1.2-1.9c0.5-0.5,1.2-0.8,2.1-0.8c0.4,0,1.2,0,2.3-0.1c1.2,0,2.4-0.1,3.6-0.2
		c1.3-0.1,2.4-0.1,3.5-0.2c1.1,0,1.8-0.1,2.1-0.1l0.1,0.1c0.1-1.2,0.2-2.5,0.3-3.9c0.1-1.4,0.4-3,0.7-4.8c0.3-1.8,0.8-3.6,1.5-5.4
		c0.6-1.8,1.5-3.5,2.6-4.9c1.1-1.5,2.3-2.7,3.8-3.6c1.5-0.9,3.3-1.4,5.5-1.4c2.8,0,4.7,0.6,5.6,1.9c0.9,1.3,1.4,2.9,1.4,5v0.8
		c-0.1,2.2-0.7,5.1-1.9,8.7c-1.1,3.6-2.2,7.8-3.2,12.5c9.6-0.2,17.5-1.1,23.7-2.8c6.2-1.7,11.2-3.9,14.8-6.4
		c3.6-2.6,6.2-5.4,7.7-8.5c1.5-3.1,2.2-6.1,2.2-9c0-2.7-0.7-5.4-2-7.9c-1.3-2.5-3.2-4.7-5.8-6.7c-2.6-1.9-5.7-3.5-9.5-4.6
		C592.9,802.3,588.5,801.7,583.5,801.7z"/>
	<path id="XMLID_54_" class="st3" d="M689.2,863.1c1.6,3.2,2.8,6.7,3.6,10.3c0.8,3.6,1.2,7.7,1.2,12.2c0,3.3-0.4,6.6-1.1,10
		c-0.7,3.4-1.8,6.6-3.1,9.7c-1.4,3.1-3,6.1-5,8.8c-2,2.7-4.2,5.1-6.8,7.1c-2.5,2-5.3,3.6-8.3,4.8c-3,1.2-6.2,1.8-9.6,1.8
		c-4.9,0-9.1-1.1-12.6-3.2c-3.5-2.1-6.4-5-8.6-8.4c-2.2-3.5-3.9-7.4-4.9-11.7c-1-4.4-1.6-8.8-1.6-13.2c0-7.4,0.9-13.7,2.8-19.1
		c1.8-5.3,4.5-10,7.9-13.9c3.4-3.9,7.6-7,12.6-9.3c5-2.3,10.6-3.4,16.8-3.4c5.3,0,10.3,0.8,14.9,2.5c4.6,1.6,9,3.9,13,6.6
		c4,2.8,7.8,6.2,11.3,10.4c3.5,4.2,6.7,8.2,9.8,12l-1.6,11.8c-1.5-2-3.5-4.2-6.1-6.5c-2.6-2.3-5.3-4.9-8.2-7.8
		c-2.9-2.8-5.7-5.3-8.5-7.2c-2.8-2-5.2-3.6-7.2-5L689.2,863.1z M663.3,911.6c1.9,0,3.7-1,5.5-2.9c1.8-1.9,3.4-4.4,4.7-7.3
		c1.3-2.9,2.4-6.5,3.2-10.6c0.8-4.2,1.2-7.9,1.2-11.1c0-2.6-0.2-5-0.6-7.2c-0.4-2.2-1-4.1-1.8-5.7c-0.8-1.6-1.8-2.9-3-3.9
		c-1.2-0.9-2.7-1.4-4.4-1.4c-2.3,0-4.5,1-6.5,2.9c-2.1,2-3.9,4.5-5.4,7.5c-1.6,3-2.8,6.4-3.7,10.1c-0.9,3.7-1.3,7.8-1.3,12.5
		c0,2.3,0.2,4.6,0.7,6.6c0.4,2.1,1.1,3.9,2.1,5.4c0.9,1.5,2.2,2.8,3.8,3.7C659.2,911.2,661.1,911.6,663.3,911.6z"/>
	<path id="XMLID_52_" class="st3" d="M736,927.7c-5.2,0-9.7-0.9-13.6-2.8c-3.9-1.9-7.2-4.4-9.8-7.6c-2.6-3.2-4.6-6.9-6-11.1
		c-1.3-4.2-2-8.5-2-13.1c0-3.2,0.6-7.1,1.7-11.6c1.1-4.5,2.3-8.5,3.7-11.9c1.3-3.4,2.9-6.6,4.9-9.7c1.9-3.1,4.2-5.8,6.7-8.1
		c2.6-2.3,5.4-4.2,8.5-5.5c3.1-1.4,6.6-2.1,10.4-2.1c3.4,0,6.5,0.5,9.4,1.5c2.9,1,5.3,2.3,7.4,4.1c2,1.7,3.7,3.8,4.8,6.2
		c1.2,2.4,1.7,4.9,1.7,7.7c0,1.9-0.3,3.8-0.8,5.6c-0.5,1.8-1.6,4-3.2,6.5c-1.6,2.5-3.1,4.2-4.6,5.1c-1.5,0.9-3.2,1.3-5,1.3
		c-2.8,0-4.7-0.7-5.5-2.1c-1.4-2.2-1.8-4.1-1.3-5.8c0.2-0.9,0.7-3,1.5-6.2c0.1-0.4,0.1-1.5,0.1-3c0-1.3-0.1-2.5-0.4-3.4
		c-0.3-0.9-0.9-1.3-1.8-1.3c-2.3,0-4.2,0.5-5.8,1.6c-1.6,1.1-3,2.5-4.1,4.3c-1.1,1.8-2.3,4.2-3.4,7.5c-1.1,3.2-1.9,5.9-2.4,8.1
		c-0.5,2.2-0.8,4.3-0.9,6.2c-0.1,2-0.2,3.6-0.2,5c0,2,0.2,4.1,0.5,6.3c0.4,2.2,1.1,4.2,2.2,6c1.1,1.8,2.5,3.3,4.2,4.5
		c1.7,1.2,3.9,1.8,6.7,1.8c2.7,0,5.6-0.8,8.9-2.5c3.2-1.6,6.5-3.7,9.8-6.2c3.3-2.5,6.4-5.3,9.3-8.3c3-3,5.5-5.9,7.6-8.5l5.8,9.7
		c-4.2,6-8.7,11.3-13.6,16c-2.1,2-4.3,4-6.7,5.9c-2.4,1.9-5,3.6-7.6,5.1c-2.7,1.5-5.4,2.7-8.3,3.6C741.9,927.2,739,927.7,736,927.7z
		"/>
	<path id="XMLID_49_" class="st3" d="M802,876.5c2.3-3.1,4.9-6.4,7.7-10c2.8-3.6,6.7-7.7,11.4-12.3c4.8-4.6,8.7-8,11.7-10
		c3-2,5.9-3.1,8.6-3.1c0.7,0,1.4,0.1,2.3,0.4c0.8,0.3,1.6,0.7,2.4,1.4c0.8,0.7,1.4,1.6,1.9,2.9c0.5,1.2,0.8,2.8,0.8,4.7
		c0,3.9-0.5,7.6-1.6,11.3c-1.1,3.7-3.1,8.1-6,13.4c-3,5.2-5,9.8-6,13.6c-1,3.8-1.5,7.8-1.5,12c0,2.3,0.3,4.1,1,5.5
		c0.7,1.4,1.5,2,2.6,2c1.3,0,2.8-0.3,4.3-0.8c1.5-0.6,3-1.3,4.5-2.2c1.5-0.9,3-1.9,4.4-3.1c1.5-1.2,2.8-2.4,4.1-3.6
		c3.1-2.9,6.1-6.2,9-9.8L865,911c-1,0.7-2.3,1.7-3.8,2.8c-1.5,1.1-3.2,2.3-5.1,3.5c-1.9,1.2-3.9,2.5-6.1,3.7
		c-2.2,1.3-4.4,2.4-6.6,3.3c-2.2,1-4.4,1.8-6.6,2.4c-2.2,0.6-4.3,0.9-6.3,0.9c-3.1,0-5.9-0.8-8.2-2.4c-2.3-1.6-4.2-3.6-5.7-6
		c-1.5-2.4-2.6-5.1-3.3-7.9c-0.7-2.9-1.1-5.6-1.1-8.1c0-1.8,0.2-3.8,0.7-6.1c0.5-2.2,1.1-4.5,1.8-6.7c0.7-2.3,1.5-4.5,2.4-6.6
		c0.9-2.1,1.7-4.1,2.5-5.8c0.8-1.7,1.5-3.1,2-4.1c0.6-1.1,1-1.7,1.1-1.9l-1.8-0.3c-0.9,0.6-2.6,2.2-4.8,4.6
		c-2.3,2.5-4.8,5.6-7.7,9.4c-2.8,3.8-5.8,8-8.8,12.8c-3,4.7-5.8,9.6-8.3,14.6c-1.2,2.5-2.2,4.7-3,6.5c-0.8,1.8-1.5,3.3-2.3,4.5
		c-0.8,1.1-1.6,2-2.5,2.6c-0.9,0.6-2,0.9-3.4,0.9c-1.8,0-3.3-0.5-4.4-1.5c-1.1-1-1.9-2.3-2.4-4c-0.6-1.7-0.9-3.5-1.1-5.6
		c-0.2-2.1-0.3-4.2-0.3-6.5c0-3.8,0-8.9,0.1-15.1c0.1-6.2,0.3-13.1,0.8-20.6c0.4-7.6,1.3-15.4,2.4-23.5c1.2-8.1,2.4-16.2,3.5-24.2
		c1.2-8,2.9-15.6,5.2-22.9c2.3-7.2,5.1-13.6,8.5-19.1c3.3-5.5,7.2-9.9,11.7-13.1c4.5-3.2,9.6-4.9,15.4-4.9c3,0,5.5,0.5,7.4,1.3
		c1.9,0.9,3.5,2.2,4.6,3.8c1.1,1.6,1.9,3.6,2.4,5.9c0.4,2.3,0.7,4.8,0.7,7.6c0,4.2-0.6,8.8-1.8,13.9c-1.2,5.1-2.7,10.4-4.7,15.8
		c-1.9,5.5-4.1,11-6.6,16.6c-2.5,5.6-5,11.1-7.5,16.3c-2.6,5.3-5.1,10.3-7.6,14.9c-2.5,4.7-4.7,8.8-6.6,12.4L802,876.5z
		 M809.4,823.8c3.3-8.5,5.7-15.7,7.2-21.6c1.5-5.9,2.2-10.2,2.2-13c0-4.2-0.6-6.4-1.8-6.4c-1.5,0-3.6,2.4-6.5,7.1
		c-2.8,4.7-6.2,11.6-10.1,20.7c-1,3.1-1.8,6.3-2.6,9.5c-0.8,3.3-1.5,6.6-1.9,9.9c-0.5,3.3-0.9,6.5-1.4,9.7c-0.5,3.2-0.9,6.2-1.3,9
		c-1.2,6.6-2.2,13.1-2.8,19.5c1.5-3.5,3.2-7.3,5-11.5c1.8-4.1,3.6-8.2,5.3-12.3c1.7-4,3.4-7.9,4.9-11.5
		C807.2,829.4,808.4,826.3,809.4,823.8z"/>
	<path id="XMLID_46_" class="st3" d="M951.3,906.9c-1.3,1.8-3,3.9-5.2,6.4c-2.1,2.4-4.6,4.7-7.2,6.9c-2.7,2.2-5.6,4.1-8.6,5.6
		c-3.1,1.5-6.1,2.3-9.2,2.3c-3.7,0-6.8-1.2-9.3-3.5c-2.5-2.3-4.6-5.8-6.4-10.2c-1.4,1.5-3,3.1-5,4.7c-2,1.6-4.1,3.1-6.5,4.4
		c-2.3,1.3-4.8,2.4-7.3,3.2c-2.5,0.8-5.1,1.2-7.6,1.2c-2.7,0-5.3-0.5-7.8-1.6c-2.5-1.1-4.8-2.7-6.7-4.7c-2-2.1-3.5-4.6-4.7-7.5
		c-1.2-3-1.8-6.3-1.8-10c0-4.2,0.6-8.5,1.8-12.9c1.2-4.4,3-9.2,5.5-14.3c2.5-5.1,5.1-9.5,8-13.3c2.8-3.7,5.9-7,9.3-9.8
		c3.4-2.8,6.9-5,10.7-6.6c3.7-1.6,7.5-2.5,11.4-2.5c1.3,0,2.3,0.3,3,0.8c0.7,0.5,1.3,1.1,1.8,1.7c0.5,0.6,0.9,1.3,1.4,1.9
		c0.4,0.6,1,1.1,1.7,1.4c0.7,0.3,1.4,0.5,2.1,0.5c0.7,0.1,1.4,0.1,2.1,0.1c0.6,0,1.3,0,1.9,0c0.6,0,1.3,0,1.9,0
		c0.8,0,1.6,0.1,2.4,0.3c0.7,0.2,1.4,0.5,1.9,1.1c0.6,0.6,1,1.4,1.3,2.4c0.3,1,0.5,2.4,0.5,4.1c0,2.7-0.3,5.6-0.8,8.9
		c-0.6,3.3-1.2,6.6-1.9,10c-0.7,3.4-1.5,7.3-2.5,11.7c-0.9,4.4-1.4,8.1-1.4,11c0,2.6,0.2,4.6,0.7,6c0.5,1.4,1.5,2.2,3.1,2.2
		c1.2,0,2.4-0.3,3.7-0.9c1.3-0.6,2.6-1.3,3.9-2.3c1.3-0.9,2.6-2,3.9-3.2c1.3-1.2,2.6-2.4,3.7-3.7c2.7-3,5.5-6.4,8.3-10.1
		L951.3,906.9z M879.4,900.4c0,1.4,0.1,2.8,0.3,4.2c0.2,1.4,0.5,2.6,1.1,3.6c0.5,1.1,1.2,1.9,2,2.6c0.8,0.7,1.9,1,3.2,1
		c2.1,0,3.9-0.9,5.6-2.7c1.7-1.8,3.1-4,4.4-6.5c1.2-2.5,2.2-5.1,3-7.8c0.8-2.7,1.2-4.9,1.5-6.7l6.3-27.2c-2.3,0-4.5,0.6-6.7,1.7
		c-2.2,1.1-4.2,2.7-6.2,4.6c-1.9,1.9-3.7,4.2-5.3,6.6c-1.6,2.5-3.2,5.6-4.8,9.2c-1.6,3.7-2.7,6.9-3.3,9.6
		C879.7,895.3,879.4,897.9,879.4,900.4z"/>
</g>
<g id="XMLID_28_">
	<g id="XMLID_34_">
		<path id="XMLID_37_" class="st4" d="M511.1,59.8c79.8-0.8,153.2,20.1,220,62.5c66.8,42.4,117.5,98.4,152,167.8
			c28.8,57.6,43.2,118.6,43.2,183.1c0,72.6-17.9,140.5-53.6,203.8c-35.7,63.3-84.5,113.8-146.3,151.4
			c-65.6,39.9-138.2,59.9-217.6,59.9c-77.2,0-149.2-20.8-216.2-62.5c-67-41.6-117.6-97.2-151.7-166.7
			c-28.8-58.3-43.2-122.4-43.2-192.3c0-57.6,12.5-113.2,37.4-167c34.2-74.1,85.2-132.6,153.2-175.6C354.7,82.1,429,60.6,511.1,59.8z
			"/>
		<path id="XMLID_5_" class="st5" d="M847.2,526.3c0,109.9-89.1,199-199,199c-110,0-199-89.1-199-199c0-109.9,89.1-199,199-199
			C758.1,327.2,847.2,416.3,847.2,526.3z"/>
		<path id="XMLID_4_" class="st4" d="M775.7,474.1c0,44.9-36.4,81.4-81.4,81.4c-45,0-81.4-36.4-81.4-81.4s36.4-81.4,81.4-81.4
			C739.3,392.8,775.7,429.2,775.7,474.1z"/>
	</g>
</g>
<g id="XMLID_2_" class="st2">
	<path id="XMLID_3_" class="st3" d="M332.8,78.5h163.7c119.4,0,217.7,34.1,294.7,102.4c90.1,79.8,135.1,180.8,135.1,303
		c0,59.9-13.1,117.5-39.3,172.6c-45.2,95.2-115.9,162.7-211.9,202.4c-52,21.4-121.6,32.1-208.9,32.1H352.4
		c-54.4,0-92.3-7.1-113.7-21.4c-27.8-18.6-45.6-42.1-53.6-70.2c-4.8-17.1-7.1-47.6-7.1-91.7V261.2c0-38.5,0.6-62.1,1.8-70.8
		c3.2-25,12.3-46.2,27.4-63.7C234.6,94.5,276.4,78.5,332.8,78.5z"/>
	<path id="XMLID_8_" class="st6" d="M851.2,538.7c0,113.6-92.1,205.8-205.8,205.8c-113.7,0-205.8-92.1-205.8-205.8
		c0-113.7,92.1-205.8,205.8-205.8C759.1,332.9,851.2,425,851.2,538.7z"/>
	<path id="XMLID_9_" class="st3" d="M781.3,484.7c0,37.5-30.4,68-67.9,68c-37.5,0-68-30.4-68-68c0-37.5,30.4-67.9,68-67.9
		C750.9,416.8,781.3,447.2,781.3,484.7z"/>
</g>
</svg>
